<?xml version="1.0" standalone="no"?>
<!DOCTYPE svg PUBLIC "-//W3C//DTD SVG 20010904//EN"
 "http://www.w3.org/TR/2001/REC-SVG-20010904/DTD/svg10.dtd">
<svg version="1.0" xmlns="http://www.w3.org/2000/svg"
 width="609.000000pt" height="609.000000pt" viewBox="0 0 609.000000 609.000000"
 preserveAspectRatio="xMidYMid meet">
<metadata>
Created by potrace 1.14, written by Peter Selinger 2001-2017
</metadata>
<g transform="translate(0.000000,609.000000) scale(0.100000,-0.100000)"
fill="#000000" stroke="none">
<path d="M3190 4797 c-3 -3 -42 -8 -87 -11 -78 -5 -151 -29 -168 -56 -4 -6
-17 -4 -36 5 -30 16 -122 31 -250 42 -233 18 -534 -150 -811 -455 -117 -129
-169 -237 -187 -392 -14 -117 -36 -281 -55 -420 -10 -68 -29 -145 -56 -220
-108 -299 -137 -410 -147 -566 -7 -119 5 -180 53 -277 19 -38 46 -98 60 -135
44 -117 136 -271 294 -492 70 -98 120 -194 120 -231 0 -36 -13 -62 -52 -107
-32 -38 -30 -48 12 -57 17 -4 30 -10 30 -14 0 -4 -18 -25 -40 -46 -22 -21 -40
-48 -40 -58 0 -17 6 -19 48 -15 33 3 50 0 58 -11 10 -13 22 -11 90 13 44 15
102 43 131 61 60 40 163 143 200 200 l25 40 106 0 c93 0 113 3 154 24 59 30
86 58 103 108 l14 38 1 -42 c0 -64 17 -91 64 -104 80 -22 219 10 278 64 37 34
80 38 143 11 67 -28 135 -17 280 44 63 26 78 29 152 24 70 -4 88 -1 127 18 25
12 50 19 55 15 6 -3 47 -14 93 -24 46 -11 101 -26 123 -34 35 -13 138 -28 304
-44 74 -7 80 3 43 77 -67 132 -52 208 102 527 112 233 139 304 163 423 24 126
-1 282 -61 378 -12 20 -34 69 -49 108 -14 40 -62 150 -105 245 -84 183 -113
264 -162 459 -40 160 -72 245 -137 372 -120 232 -297 392 -508 462 -82 27
-212 46 -345 53 -69 3 -127 3 -130 0z m146 -834 c11 -7 67 -29 124 -48 125
-42 225 -99 304 -174 56 -54 253 -335 288 -411 31 -69 56 -552 37 -710 -19
-149 -61 -213 -184 -275 l-70 -35 -22 29 c-34 44 -94 63 -210 69 l-102 5 14
26 c20 40 27 93 16 121 -8 22 -10 18 -10 -27 -1 -61 -18 -83 -84 -114 -72 -32
-157 -20 -201 30 -11 11 -23 21 -28 21 -13 0 -9 -45 7 -66 8 -10 15 -22 15
-25 0 -3 -39 -9 -87 -12 -184 -13 -333 -87 -333 -164 0 -21 -4 -24 -27 -19
-16 3 -53 8 -83 12 -76 9 -120 26 -190 74 -94 64 -195 198 -273 360 l-26 55
14 105 c7 58 16 141 19 185 9 113 16 146 38 170 26 27 98 137 98 150 1 13 52
49 115 79 68 33 167 41 330 26 143 -14 165 -10 165 30 0 24 -39 36 -155 49
-150 18 -302 8 -378 -24 -28 -12 44 101 111 176 104 115 236 185 446 238 128
32 165 48 180 76 6 11 12 22 13 24 5 8 78 17 93 12 8 -2 24 -11 36 -18z m826
-1159 l-10 -59 0 80 c-1 60 2 75 9 59 7 -13 7 -41 1 -80z m-411 -566 c-11 -18
-26 -58 -35 -89 -12 -43 -26 -66 -61 -98 -59 -55 -112 -59 -178 -14 -34 24
-43 25 -110 20 -91 -7 -131 -21 -148 -53 -7 -14 -22 -30 -32 -36 -33 -18 -102
-11 -153 15 -55 28 -77 50 -127 124 l-35 52 29 10 c20 7 94 7 233 -1 150 -8
215 -7 252 1 27 6 56 13 64 15 8 2 32 7 54 10 21 4 57 19 80 33 47 30 83 41
143 42 l42 1 -18 -32z"/>
<path d="M3493 3394 c-7 -20 14 -60 41 -77 80 -52 231 -76 375 -60 84 9 110
29 78 60 -15 15 -38 18 -155 19 -131 1 -141 3 -235 37 -82 30 -99 33 -104 21z"/>
<path d="M3626 3242 c-8 -13 40 -19 159 -21 61 -1 94 2 85 8 -22 12 -237 24
-244 13z"/>
<path d="M3668 3147 c-48 -14 -62 -22 -111 -66 -30 -27 -67 -90 -67 -113 0 -7
9 6 21 30 25 50 34 53 37 11 3 -35 23 -79 46 -98 11 -10 32 -11 73 -6 69 8 91
17 120 44 28 27 42 27 52 -1 9 -22 10 -21 26 17 12 27 16 56 13 92 l-5 52 50
-27 c27 -15 55 -35 61 -44 15 -25 26 -22 26 6 0 27 -56 70 -122 93 -61 21
-164 25 -220 10z m2 -51 c0 -34 -23 -50 -50 -36 -26 14 -22 31 11 47 34 18 39
16 39 -11z"/>
<path d="M2695 3047 c-33 -13 -81 -37 -107 -55 -56 -39 -118 -109 -118 -134 0
-16 9 -12 48 21 27 23 51 41 54 41 3 0 8 -17 12 -38 3 -22 15 -51 27 -65 19
-25 26 -27 97 -27 66 0 81 4 114 26 21 15 38 30 38 35 0 5 7 6 16 2 10 -4 14
-14 11 -29 -6 -33 9 -30 27 4 24 47 29 94 12 142 -8 24 -13 46 -10 49 13 14
79 -38 106 -84 29 -49 30 -49 24 -15 -21 124 -193 186 -351 127z m25 -65 c0
-38 -46 -56 -69 -28 -10 12 -7 18 16 30 37 20 53 20 53 -2z"/>
</g>
</svg>
